<?xml version="1.0" standalone="no"?>
<!DOCTYPE svg PUBLIC "-//W3C//DTD SVG 20010904//EN"
 "http://www.w3.org/TR/2001/REC-SVG-20010904/DTD/svg10.dtd">
<svg version="1.0" xmlns="http://www.w3.org/2000/svg"
 width="16.000000pt" height="16.000000pt" viewBox="0 0 16.000000 16.000000"
 preserveAspectRatio="xMidYMid meet">
<metadata>
Created by potrace 1.11, written by Peter Selinger 2001-2013
</metadata>
<g transform="translate(0.000000,16.000000) scale(0.003478,-0.003478)"
fill="#000000" stroke="none">
<path d="M1740 4486 c0 -8 -15 -17 -35 -20 -25 -5 -39 -14 -45 -32 -6 -14 -17
-24 -30 -24 -16 0 -20 -7 -20 -34 0 -54 11 -96 26 -96 8 0 14 9 14 20 0 15 7
20 24 20 18 0 25 6 28 23 2 18 10 23 42 25 21 2 42 0 47 -5 4 -4 5 -36 2 -70
-5 -53 -9 -63 -24 -63 -14 0 -19 -7 -19 -26 0 -24 -3 -25 -42 -22 l-43 3 -3
-40 c-2 -27 1 -43 12 -51 9 -6 19 -29 24 -50 6 -29 13 -40 30 -42 14 -2 22
-10 22 -22 0 -15 9 -19 43 -22 42 -3 42 -3 45 -45 3 -37 0 -43 -17 -43 -27 0
-32 -12 -25 -59 5 -31 11 -41 25 -41 15 0 19 -8 19 -40 0 -34 4 -42 25 -50 21
-8 25 -16 25 -50 0 -33 3 -40 20 -40 15 0 20 -7 20 -25 0 -20 5 -25 25 -25 14
0 25 -6 26 -12 0 -7 0 -47 -1 -89 l-1 -76 37 -6 c21 -4 39 -5 40 -4 1 1 5 23
9 50 7 43 5 47 -13 47 -21 0 -32 33 -32 95 0 30 -3 33 -42 41 -42 9 -43 10
-43 49 0 40 0 40 42 43 l42 3 3 -48 c3 -41 6 -48 26 -51 12 -2 22 -10 22 -17
0 -8 5 -17 10 -20 16 -10 50 5 50 21 0 31 20 11 26 -26 6 -34 10 -40 30 -40
18 0 24 6 24 21 0 12 8 23 20 26 11 3 20 12 20 19 0 8 -9 14 -20 14 -18 0 -20
7 -20 71 0 61 -3 72 -19 76 -14 4 -22 20 -31 69 -8 40 -17 64 -25 64 -8 0 -15
10 -17 23 -2 14 -11 23 -25 25 -17 3 -23 10 -23 28 0 17 -5 24 -20 24 -17 0
-20 7 -20 44 0 36 4 45 21 49 17 5 20 11 15 29 -3 13 -6 31 -6 41 0 9 -6 17
-14 17 -10 0 -17 15 -21 44 -7 41 -9 44 -45 50 -26 4 -39 12 -43 26 -3 12 -14
20 -26 20 -14 0 -21 6 -21 19 0 13 -8 21 -22 23 -20 3 -23 10 -26 51 -3 42 -1
47 17 47 14 0 21 6 21 19 0 15 -10 20 -45 25 -29 5 -45 12 -45 22 0 8 -10 14
-25 14 -15 0 -25 -6 -25 -14z"/>
<path d="M2390 4401 c0 -14 -6 -21 -19 -21 -11 0 -23 -4 -26 -10 -3 -5 -15
-10 -26 -10 -10 0 -19 5 -19 10 0 6 -9 10 -20 10 -17 0 -20 -7 -20 -50 0 -43
3 -50 20 -50 18 0 20 -7 20 -70 0 -63 2 -70 20 -70 16 0 20 7 20 33 0 17 3 49
6 70 l7 37 63 0 63 0 6 43 c12 80 6 92 -47 95 -43 3 -48 1 -48 -17z"/>
<path d="M3547 4300 c-3 -11 -14 -20 -25 -20 -20 0 -32 -38 -32 -107 0 -26 -4
-33 -20 -33 -19 0 -20 -7 -20 -90 0 -83 1 -90 20 -90 17 0 20 -7 20 -52 0 -29
3 -83 7 -120 5 -57 9 -68 24 -68 18 0 19 -11 19 -181 0 -170 1 -181 19 -186
24 -6 31 -31 31 -115 0 -66 -1 -68 -25 -68 -29 0 -29 -6 -18 -172 4 -67 10
-98 18 -98 13 0 25 -51 25 -107 0 -26 4 -33 19 -33 15 0 20 -10 25 -45 l7 -45
45 0 44 0 0 -70 c0 -68 -1 -70 -25 -70 -18 0 -25 5 -25 20 0 16 -7 20 -30 20
-20 0 -30 -5 -30 -15 0 -8 -4 -15 -10 -15 -5 0 -10 -11 -10 -25 0 -18 -7 -26
-24 -31 -15 -3 -26 -14 -28 -27 -2 -16 -11 -23 -30 -25 -27 -3 -28 -2 -28 42
0 39 -3 46 -20 46 -11 0 -20 -7 -20 -15 0 -22 -37 -18 -43 5 -4 17 -13 20 -69
20 -80 0 -105 -7 -111 -31 -3 -13 -14 -19 -31 -19 -21 0 -26 5 -26 25 0 18 -5
25 -20 25 -17 0 -19 8 -22 68 l-3 67 -42 -3 c-36 -2 -43 1 -43 17 0 10 -3 33
-6 50 -6 28 -4 31 20 31 l26 0 0 205 c0 194 -1 205 -19 205 -15 0 -20 10 -25
44 -7 42 -9 45 -46 51 -25 4 -40 12 -40 21 0 8 -11 19 -25 24 -30 11 -33 40
-5 47 11 3 20 13 20 23 0 18 -41 30 -107 30 -26 0 -33 4 -33 20 0 17 7 20 44
20 41 0 44 2 50 31 12 62 7 101 -14 106 -14 4 -21 17 -26 48 -4 31 -12 45 -25
48 -14 4 -19 14 -19 40 0 54 -11 97 -25 97 -7 0 -16 17 -19 38 -15 86 -17 92
-37 92 -14 0 -19 7 -19 25 0 18 -5 25 -20 25 -18 0 -20 8 -22 93 -3 87 -4 92
-25 95 -15 2 -23 10 -23 23 0 12 -7 19 -20 19 -13 0 -20 -7 -20 -19 0 -17 -8
-20 -47 -23 -41 -3 -48 -6 -51 -25 -5 -31 -39 -31 -44 -1 -4 33 -36 35 -44 4
-4 -17 -13 -26 -25 -26 -17 0 -19 -8 -19 -65 0 -58 2 -65 20 -65 14 0 20 -7
20 -22 0 -41 11 -66 31 -71 15 -4 19 -14 19 -52 0 -38 4 -48 19 -52 16 -4 20
-18 26 -89 6 -72 10 -84 26 -84 14 0 18 -9 21 -47 3 -41 6 -48 26 -51 20 -3
22 -9 22 -68 0 -56 2 -64 19 -64 15 0 20 -10 26 -50 6 -40 11 -50 26 -50 14 0
19 -7 19 -25 0 -18 5 -25 20 -25 11 0 20 -7 20 -15 0 -8 -9 -15 -20 -15 -17 0
-20 -7 -20 -50 0 -43 3 -50 20 -50 16 0 20 -7 20 -32 0 -69 12 -108 31 -108
16 0 19 -8 19 -44 0 -39 3 -45 23 -48 14 -2 23 -11 25 -25 2 -14 10 -23 21
-23 14 0 20 -10 25 -39 4 -27 12 -40 26 -44 12 -3 20 -14 20 -27 0 -13 8 -24
19 -27 22 -6 34 -54 25 -101 -6 -30 -9 -32 -50 -32 -37 0 -44 3 -44 20 0 17
-7 20 -45 20 -42 0 -45 -2 -45 -27 l0 -26 -107 6 c-58 4 -139 7 -180 7 -58 0
-73 3 -73 15 0 8 6 15 14 15 9 0 16 18 21 55 l6 55 38 0 c35 0 39 3 45 31 14
73 4 135 -25 142 -17 5 -19 15 -19 96 0 84 -1 91 -20 91 -16 0 -20 7 -20 34 0
18 -3 48 -6 65 -6 29 -9 31 -50 31 -31 0 -44 -4 -44 -14 0 -15 -42 -26 -101
-26 -26 0 -39 -5 -39 -13 0 -8 -18 -20 -40 -27 -44 -14 -58 -50 -20 -50 16 0
20 -7 20 -34 0 -58 11 -94 31 -99 15 -4 19 -14 19 -51 0 -38 3 -46 19 -46 15
0 20 -10 25 -45 6 -36 11 -45 27 -45 14 0 19 -7 19 -25 0 -18 5 -25 19 -25 15
0 19 -11 25 -61 3 -34 6 -97 6 -140 0 -72 2 -79 20 -79 13 0 20 -7 20 -20 0
-15 7 -20 25 -20 18 0 25 -5 25 -20 0 -19 -7 -20 -95 -20 -88 0 -95 1 -95 20
0 13 -7 20 -20 20 -13 0 -20 -7 -20 -20 0 -16 -7 -20 -32 -20 -69 0 -108 -12
-108 -31 0 -16 -8 -19 -44 -19 -39 0 -45 -3 -48 -22 -2 -15 -11 -24 -25 -26
-19 -3 -23 -10 -23 -42 0 -32 -4 -39 -22 -42 -15 -2 -24 -11 -26 -25 -3 -19
-10 -23 -43 -23 l-39 0 0 -50 c0 -38 4 -50 15 -50 10 0 17 -14 21 -41 5 -28
13 -43 25 -46 13 -4 20 -19 25 -49 5 -34 11 -44 25 -44 16 0 19 -8 19 -46 0
-37 4 -47 20 -51 13 -3 22 -17 26 -40 4 -24 14 -37 30 -43 13 -5 24 -16 24
-25 0 -10 14 -17 40 -21 l40 -7 0 -64 c0 -58 2 -64 24 -73 28 -10 34 -36 28
-118 -4 -51 -8 -62 -22 -62 -18 0 -30 -41 -30 -107 0 -26 -4 -33 -20 -33 -17
0 -20 -7 -20 -45 0 -38 -3 -45 -20 -45 -17 0 -20 -7 -20 -39 0 -65 -11 -101
-30 -101 -14 0 -19 -13 -24 -70 -6 -60 -10 -70 -27 -70 -12 0 -19 -7 -19 -20
0 -13 -7 -20 -20 -20 -15 0 -20 -7 -20 -24 0 -18 -6 -25 -22 -28 -15 -2 -24
-11 -26 -27 -2 -13 -12 -26 -23 -28 -12 -3 -21 -18 -25 -42 -4 -20 -16 -46
-28 -58 -23 -25 -66 -31 -66 -9 0 17 -51 26 -148 26 -66 0 -74 -2 -79 -20 -3
-11 -13 -20 -23 -20 -12 0 -20 -9 -22 -22 -2 -15 -11 -24 -27 -26 -13 -2 -26
-12 -28 -23 -3 -12 -18 -21 -39 -25 -24 -4 -34 -12 -34 -25 0 -11 7 -19 15
-19 8 0 15 -9 15 -20 0 -16 7 -20 38 -20 73 0 112 -11 112 -31 0 -16 8 -19 54
-19 78 0 113 -9 119 -31 5 -17 15 -19 90 -19 108 0 147 8 147 29 0 14 16 17
115 19 106 2 115 1 115 -16 0 -13 12 -23 39 -32 23 -7 41 -21 44 -31 5 -17 16
-19 96 -19 84 0 91 -2 91 -20 0 -17 7 -19 58 -19 88 1 132 9 132 25 0 22 37
17 43 -6 4 -16 14 -20 45 -20 34 0 41 3 44 23 3 20 8 22 73 22 57 0 70 3 73
16 4 20 31 29 89 29 35 0 42 3 45 23 2 18 10 23 46 25 33 2 42 7 42 21 0 13
10 20 30 24 17 4 30 13 30 21 0 14 29 26 63 26 13 0 17 -9 17 -42 0 -89 32
-124 45 -49 4 26 13 41 25 44 12 3 20 18 25 45 4 28 12 42 26 45 16 4 19 14
19 71 0 59 2 66 20 66 16 0 20 -7 20 -37 0 -55 10 -66 53 -58 26 5 37 13 39
29 2 13 11 22 26 24 15 2 22 10 22 24 0 18 4 20 41 15 22 -3 43 -7 45 -10 3
-3 8 -30 11 -61 6 -55 7 -56 37 -56 17 0 48 -3 69 -6 36 -7 37 -7 35 -48 -3
-36 0 -41 20 -44 14 -2 22 -10 22 -23 0 -17 7 -19 65 -19 57 0 65 2 65 19 0
14 10 20 44 25 32 5 45 12 49 26 3 12 14 20 26 20 14 0 21 6 21 20 0 15 7 20
25 20 20 0 25 5 25 25 0 18 5 25 19 25 15 0 20 10 25 45 6 36 11 45 27 45 14
0 19 7 19 25 0 20 5 25 25 25 18 0 25 5 25 20 0 13 7 20 20 20 17 0 20 7 20
50 0 42 3 50 19 50 22 0 31 35 31 115 0 109 13 234 24 232 6 -1 12 13 14 31 2
23 -1 32 -11 32 -17 0 -27 42 -27 115 0 70 -10 115 -25 115 -14 0 -25 44 -25
101 0 31 -4 39 -19 39 -21 0 -31 40 -31 126 0 43 -3 53 -20 57 -18 5 -20 14
-20 91 0 78 -2 86 -19 86 -15 0 -20 10 -26 48 -10 74 -16 92 -30 92 -9 0 -15
28 -20 95 -5 72 -10 95 -21 95 -8 0 -14 9 -14 19 0 11 -4 23 -10 26 -5 3 -10
15 -10 26 0 10 -7 19 -15 19 -9 0 -15 10 -15 26 0 17 -6 28 -19 31 -14 4 -21
15 -23 42 -2 26 -9 39 -25 46 -14 6 -25 22 -29 42 -5 28 -11 32 -46 38 -27 5
-42 13 -45 26 -3 10 -15 19 -27 21 -13 2 -22 11 -24 25 -2 14 -11 23 -25 25
-21 3 -22 8 -21 83 1 119 13 195 30 195 8 0 14 10 14 25 0 15 -6 25 -14 25
-17 0 -28 55 -28 150 l-1 69 -46 3 c-43 3 -46 5 -43 28 2 14 3 44 3 67 -1 36
2 42 21 45 20 3 23 9 23 48 0 39 3 45 23 48 19 3 22 9 22 47 l0 44 -42 3 c-58
4 -60 32 -3 36 52 4 58 12 50 61 -6 35 -10 41 -31 41 -32 0 -31 28 1 40 15 6
25 17 25 30 0 15 7 20 25 20 l25 0 0 206 c0 198 -1 206 -20 211 -14 4 -22 17
-26 44 -5 29 -11 39 -25 39 -12 0 -19 7 -19 19 0 24 -19 31 -86 31 -47 0 -54
2 -54 20 0 13 -7 20 -19 20 -10 0 -21 -9 -24 -20z m114 -653 c-10 -9 -11 -8
-5 6 3 10 9 15 12 12 3 -3 0 -11 -7 -18z m-901 -267 c0 -13 -7 -20 -20 -20
-13 0 -20 7 -20 20 0 13 7 20 20 20 13 0 20 -7 20 -20z m968 -278 c3 -17 -2
-22 -17 -22 -16 0 -21 6 -21 26 0 33 33 30 38 -4z m22 -362 c0 -5 -5 -10 -11
-10 -5 0 -7 5 -4 10 3 6 8 10 11 10 2 0 4 -4 4 -10z m-262 -327 c2 -8 -5 -13
-17 -13 -12 0 -21 6 -21 16 0 18 31 15 38 -3z m-270 -250 l-3 -48 -45 0 c-44
0 -45 1 -48 33 -5 53 2 62 53 62 l46 0 -3 -47z m-414 -134 c7 -37 1 -49 -25
-49 -14 0 -19 7 -19 25 0 18 -5 25 -20 25 -11 0 -20 7 -20 15 0 11 11 15 39
15 35 0 39 -3 45 -31z m289 -55 c51 -9 47 -30 -7 -38 -42 -7 -45 -9 -51 -46
-8 -45 -1 -60 26 -60 17 0 19 -7 19 -64 0 -59 2 -65 23 -68 14 -2 23 -11 25
-25 2 -15 10 -23 23 -23 12 0 19 -7 19 -19 0 -42 -132 -36 -138 6 -3 19 -11
21 -85 25 -116 5 -137 1 -137 -28 0 -18 6 -24 21 -24 12 0 23 -8 26 -20 4 -16
14 -20 43 -20 35 0 38 -2 44 -37 3 -21 6 -53 6 -70 0 -26 4 -33 20 -33 15 0
20 -7 20 -26 0 -17 6 -28 20 -31 17 -4 20 -14 20 -57 0 -86 10 -126 31 -126
12 0 19 -7 19 -20 0 -13 -7 -20 -20 -20 -17 0 -20 -7 -20 -44 0 -42 1 -44 35
-50 41 -8 55 -2 55 23 0 16 10 19 62 23 69 5 116 -10 96 -30 -7 -7 -25 -12
-40 -12 -22 0 -28 -5 -28 -21 0 -12 8 -23 19 -26 17 -4 31 -40 31 -79 0 -23
-51 -17 -57 6 -4 14 -14 20 -33 20 -44 0 -60 10 -60 37 0 23 -2 24 -41 18 -54
-9 -129 2 -129 20 0 9 -19 16 -55 20 -44 6 -55 11 -55 26 0 13 -9 19 -37 21
-37 3 -38 4 -41 46 -2 33 -7 42 -21 42 -14 0 -20 10 -25 44 -6 36 -11 45 -29
48 -20 3 -22 9 -22 73 0 65 -2 70 -22 73 -14 2 -23 10 -23 21 0 14 -10 20 -39
25 -27 4 -40 12 -44 26 -3 14 -14 20 -31 20 -19 0 -26 5 -26 19 0 19 -39 31
-102 31 -24 0 -27 5 -34 45 -5 35 -10 45 -25 45 -12 0 -19 7 -19 19 0 16 9 21
45 27 36 5 45 10 45 27 0 19 5 20 88 15 48 -3 114 -2 147 3 71 8 185 -8 185
-27 0 -16 7 -20 47 -29 29 -6 33 -4 39 19 5 23 11 26 50 26 42 0 44 1 44 30 0
23 -4 30 -20 30 -11 0 -20 6 -20 13 0 23 -25 67 -37 67 -9 0 -13 16 -13 44 0
38 3 45 23 49 36 7 129 7 170 1z m-893 -384 c0 -11 -7 -20 -15 -20 -8 0 -15 9
-15 20 0 11 7 20 15 20 8 0 15 -9 15 -20z m1060 -121 c0 -43 -3 -50 -17 -47
-12 2 -19 14 -21 37 -4 41 3 61 23 61 11 0 15 -12 15 -51z m48 -246 c2 -14 12
-23 25 -25 14 -2 23 -11 25 -25 3 -19 -1 -23 -22 -23 -19 0 -26 5 -26 19 0 10
-9 21 -20 24 -27 7 -29 60 -2 55 9 -2 18 -13 20 -25z m-878 -53 c0 -11 -7 -20
-15 -20 -8 0 -15 9 -15 20 0 11 7 20 15 20 8 0 15 -9 15 -20z m190 -109 c0
-47 -7 -53 -49 -45 -35 7 -41 29 -11 37 12 3 20 14 20 26 0 14 6 21 20 21 17
0 20 -7 20 -39z m-182 -22 c2 -12 -8 -18 -39 -23 -46 -7 -65 3 -55 29 8 22 89
17 94 -6z m1552 -649 c0 -17 -7 -20 -40 -20 -33 0 -40 3 -40 20 0 17 7 20 40
20 33 0 40 -3 40 -20z m-1738 -100 c0 -16 1 -36 2 -42 1 -7 -9 -14 -21 -16
-21 -3 -23 1 -23 42 0 39 3 46 20 46 15 0 20 -7 22 -30z"/>
<path d="M2485 1650 c-3 -5 -3 -25 0 -44 6 -29 12 -35 39 -40 18 -4 46 -3 63
0 26 5 32 12 38 40 3 19 3 39 0 44 -3 6 -35 10 -70 10 -35 0 -67 -4 -70 -10z"/>
<path d="M780 3655 c0 -106 2 -115 19 -115 20 0 31 -34 31 -101 0 -32 4 -39
19 -39 16 0 20 -8 23 -42 2 -35 7 -44 25 -46 14 -2 23 -11 25 -25 3 -20 9 -22
68 -22 l65 0 3 -42 c3 -38 1 -43 -17 -43 -29 0 -29 -46 -1 -53 16 -4 20 -14
20 -46 0 -34 3 -41 20 -41 15 0 20 -7 20 -25 0 -20 5 -25 25 -25 23 0 25 -4
25 -44 0 -39 3 -45 23 -48 14 -2 23 -11 25 -25 2 -15 10 -23 22 -23 12 0 20
-8 22 -22 2 -19 10 -24 45 -26 41 -3 42 -4 49 -49 l7 -45 86 4 c83 3 86 2 89
-19 3 -21 0 -23 -48 -23 -43 0 -53 -3 -57 -20 -3 -11 -9 -20 -14 -20 -5 0 -9
-11 -9 -25 0 -18 5 -25 20 -25 15 0 20 -7 20 -25 0 -18 5 -25 20 -25 17 0 20
-7 20 -40 0 -34 4 -42 25 -50 15 -6 25 -17 25 -30 0 -13 7 -20 19 -20 16 0 21
-9 27 -45 5 -39 10 -45 30 -45 17 0 24 -6 24 -20 0 -11 7 -20 15 -20 9 0 15
-9 15 -24 0 -21 6 -24 49 -30 48 -6 49 -7 56 -46 4 -26 12 -40 21 -40 12 0 14
10 12 43 -2 29 -8 42 -18 42 -8 0 -16 10 -18 22 -2 16 3 22 20 25 20 3 23 9
23 48 0 39 3 45 23 48 18 3 22 -1 22 -22 0 -24 3 -26 45 -26 38 0 45 3 45 20
0 13 -7 20 -19 20 -27 0 -33 13 -25 55 4 25 11 35 25 35 14 0 19 7 19 25 0 18
-5 25 -20 25 -13 0 -20 7 -20 20 0 13 -10 24 -25 30 -21 8 -25 16 -25 51 0 32
-4 42 -19 46 -13 3 -22 17 -26 44 -5 29 -12 39 -25 39 -12 0 -20 8 -22 23 -3
19 -10 22 -48 24 -25 2 -64 5 -87 9 -42 5 -43 6 -43 45 0 28 4 39 15 39 8 0
15 9 15 20 0 11 -6 20 -14 20 -7 0 -16 14 -19 30 -5 21 -12 30 -27 30 -18 0
-20 6 -20 65 0 58 -2 65 -20 65 -16 0 -21 9 -26 50 -5 39 -11 50 -24 50 -13 0
-20 11 -25 39 -4 27 -13 41 -26 44 -11 3 -19 14 -19 25 0 14 -8 22 -22 24 -15
2 -24 11 -26 26 -3 19 -9 22 -48 22 l-44 0 0 70 c0 63 -2 70 -19 70 -16 0 -20
8 -23 43 -2 35 -7 43 -25 45 -15 2 -23 10 -23 22 0 12 -8 20 -22 22 -15 2 -24
11 -26 26 -2 14 -10 22 -23 22 -14 0 -19 7 -19 25 0 20 -5 25 -25 25 -18 0
-25 5 -25 20 0 18 -7 20 -64 20 l-65 0 -7 -46 c-5 -34 -10 -44 -23 -42 -11 2
-17 16 -19 46 -3 37 -6 42 -28 42 l-24 0 0 -115z"/>
<path d="M2120 3470 c0 -13 7 -20 20 -20 13 0 20 7 20 20 0 13 -7 20 -20 20
-13 0 -20 -7 -20 -20z"/>
<path d="M2188 3403 c-20 -3 -28 -10 -28 -24 0 -12 -7 -19 -19 -19 -13 0 -21
-8 -23 -22 -2 -15 -11 -24 -25 -26 -21 -3 -23 -9 -23 -68 l0 -64 44 0 c39 0
45 3 48 23 3 21 7 22 71 18 62 -3 67 -2 67 17 0 14 8 22 23 24 20 3 22 8 22
73 l0 70 -65 1 c-36 1 -77 -1 -92 -3z"/>
<path d="M553 620 c-4 -15 -14 -20 -38 -20 -61 0 -95 -11 -95 -31 0 -14 -7
-19 -25 -19 -20 0 -25 -5 -25 -25 0 -18 -5 -25 -20 -25 -13 0 -20 -7 -20 -19
0 -10 9 -21 20 -24 12 -3 20 -14 20 -26 0 -16 6 -21 25 -21 18 0 25 -5 25 -20
0 -18 7 -20 65 -20 57 0 65 -2 65 -19 0 -25 50 -31 270 -31 206 0 240 4 240
31 0 12 7 19 19 19 21 0 31 34 31 110 0 64 -10 110 -24 110 -22 0 -66 25 -66
38 0 9 -26 12 -95 12 -86 0 -95 -2 -95 -19 0 -23 -39 -30 -127 -23 -41 3 -63
9 -63 17 0 28 -80 33 -87 5z"/>
<path d="M1150 350 c0 -13 7 -20 20 -20 13 0 20 7 20 20 0 13 -7 20 -20 20
-13 0 -20 -7 -20 -20z"/>
</g>
</svg>
